Coordinates
version=1
nRows=9
nColumns=36
inDegrees=yes

Units are S.I. units (second, meters, Newtons, ...)
If the header above contains a line with 'inDegrees', this indicates whether rotational values are in degrees (yes) or radians (no).

endheader
time	pelvis_tilt	pelvis_list	pelvis_rotation	pelvis_tx	pelvis_ty	pelvis_tz	hip_flexion_r	hip_adduction_r	hip_rotation_r	knee_angle_r	knee_angle_r_beta	ankle_angle_r	subtalar_angle_r	mtp_angle_r	hip_flexion_l	hip_adduction_l	hip_rotation_l	knee_angle_l	knee_angle_l_beta	ankle_angle_l	subtalar_angle_l	mtp_angle_l	lumbar_extension	lumbar_bending	lumbar_rotation	arm_flex_r	arm_add_r	arm_rot_r	elbow_flex_r	pro_sup_r	arm_flex_l	arm_add_l	arm_rot_l	elbow_flex_l	pro_sup_l
      6.45000000	    -13.06052659	     -1.85210328	     -6.57149419	     -0.62739698	      0.68260737	     -0.64278441	     98.56220752	     -8.00949194	      5.23301637	     89.88628716	      1.56881166	      9.35448788	     -4.16266511	     -7.49999987	    100.67714738	    -18.95465484	     10.07456528	     96.98973150	      1.69279016	     11.99822895	     -0.21591270	     -7.49999987	    -43.32457184	     -1.97909025	      7.67842080	     99.91119614	    -21.63043540	     31.44328609	     98.87505985	    100.07039986	    102.61495922	    -12.09361267	     35.21477707	     93.20969599	    102.94999003
      6.46000000	    -12.81922343	     -1.95857891	     -6.72668047	     -0.63022496	      0.68442361	     -0.64201112	     98.14546019	     -7.83471751	      5.02716254	     89.46011059	      1.56137348	      9.14849674	     -4.20908566	     -7.49999987	    100.40041533	    -19.33651940	     10.02540393	     96.59893385	      1.68596945	     11.65514581	     -0.04307624	     -7.49999987	    -43.42512946	     -2.05387183	      7.87471577	     98.60612720	    -21.32160081	     30.69951701	     99.07294195	    100.02925521	    101.41726499	    -12.01614450	     34.89364799	     93.52938509	    103.00090319
      6.47000000	    -12.49226885	     -1.94964341	     -6.72447847	     -0.63265860	      0.68598430	     -0.64167107	     97.73797535	     -7.88640847	      4.92012190	     89.16492728	      1.55622156	      8.89482297	     -4.29580268	     -7.49999987	     99.96451830	    -19.49139573	      9.85381100	     96.28346225	      1.68046343	     11.56982682	      0.08061114	     -7.49999987	    -43.50637171	     -2.08997141	      7.90908944	     97.34690669	    -21.11079175	     30.31981603	     99.13723247	    100.00476009	    100.24096152	    -12.01248197	     34.77374778	     93.68981794	    103.07771676
      6.48000000	    -12.07900047	     -1.94087781	     -6.58719040	     -0.63479488	      0.68719168	     -0.64171159	     97.28414837	     -8.10300058	      4.85687504	     88.95124980	      1.55249218	      8.67984387	     -4.22510581	     -7.49999987	     99.47921736	    -19.49953573	      9.63481940	     96.03732189	      1.67616747	     11.47019320	      0.16244945	     -7.49999987	    -43.61243530	     -2.02145881	      7.86198520	     96.30544592	    -21.14214055	     30.43924923	     99.12723491	    100.00998137	     99.20791274	    -12.10947041	     34.96083284	     93.70319026	    103.11501032
      6.49000000	    -11.58038807	     -1.88490998	     -6.36138573	     -0.63663339	      0.68801376	     -0.64191914	     96.82232005	     -8.44300673	      4.84993175	     88.78903360	      1.54966098	      8.15232397	     -4.03383221	     -7.49999987	     98.94362897	    -19.43482550	      9.33604291	     95.85161465	      1.67292627	     11.27575086	      0.29993684	     -7.49999987	    -43.73769316	     -1.93598516	      7.67177759	     95.24879421	    -21.02306434	     30.42360128	     99.00962139	    100.00639814	     98.22354549	    -12.18434980	     35.03115866	     93.61852830	    103.14767897
      6.50000000	    -11.04585793	     -1.80434980	     -6.23602870	     -0.63838828	      0.68840679	     -0.64194733	     96.37871617	     -8.61351394	      4.93710110	     88.60504365	      1.54644975	      7.35770929	     -3.87290555	     -7.49999987	     98.40660212	    -19.45779117	      9.07135934	     95.69811068	      1.67024712	     11.01924010	      0.45836500	     -7.49999987	    -43.86043624	     -1.92575567	      7.45926590	     94.31329668	    -20.82948780	     30.51780818	     98.71164474	    100.00036666	     97.43361649	    -12.36028799	     35.27284425	     93.40494565	    103.18225490
      6.51000000	    -10.51874453	     -1.78296537	     -6.21151479	     -0.63981815	      0.68806036	     -0.64160218	     96.01136921	     -8.63308776	      4.97215799	     88.57507257	      1.54592665	      6.91148066	     -3.85985433	     -7.49999987	     98.00890531	    -19.60006444	      8.94718030	     95.70603610	      1.67038544	     10.83183438	      0.57812359	     -7.49999987	    -43.91294026	     -1.94599159	      7.41184966	     93.47364317	    -20.80176620	     30.84845171	     98.50419064	     99.99968917	     96.74376206	    -12.56918408	     35.67648848	     93.17483111	    103.19550219
      6.52000000	     -9.97527292	     -1.78056511	     -6.17902022	     -0.64106806	      0.68733953	     -0.64116766	     95.67620828	     -8.64499945	      4.99249183	     88.67054999	      1.54759305	      6.60503199	     -3.89574683	     -7.49999987	     97.65557223	    -19.74423167	      8.85660829	     95.78091643	      1.67169235	     10.65179824	      0.72142102	     -7.49999987	    -43.98742963	     -1.96537591	      7.38718307	     92.75472515	    -20.80209634	     31.20127067	     98.28854652	     99.98805798	     96.20815305	    -12.78480464	     36.07183871	     92.88058065	    103.19058997
      6.53000000	     -9.51283738	     -1.82718050	     -6.12351008	     -0.64210336	      0.68649815	     -0.64089633	     95.39534874	     -8.70145939	      4.96308516	     88.80686225	      1.54997214	      6.51480681	     -3.92226802	     -7.49999987	     97.39043508	    -19.85384553	      8.83873972	     95.85694522	      1.67301931	     10.53960812	      0.80036601	     -7.49999987	    -44.02085981	     -1.92242334	      7.36679388	     92.10539280	    -20.89502589	     31.55639212	     98.19217830	     99.98760484	     95.71916791	    -12.97779512	     36.36736070	     92.70745227	    103.18816968
